<svg height="128" width="128" xmlns="http://www.w3.org/2000/svg"><rect x="2" y="2" width="124" height="124" rx="14" fill="#363d52" stroke="#212532" stroke-width="4"/><g transform="scale(.101) translate(122 122)"><g fill="#fff"><path d="M105 673v33q407 354 814 0v-33z"/><path d="m105 673 152 14q12 1 15 14l4 67 132 10 8-61q2-11 15-15h162q13 4 15 15l8 61 132-10 4-67q3-13 15-14l152-14V427q30-39 22-81-45-167-178-250-77-48-163-70-59-15-106-10-38 5-107 25-71 21-122 58-32 23-45 57-11 29-21 57-3 8-6 18-3 9-3 18 1 17 31 45-6 14-9 26-4 18-4 27 0 14 8 27 5 8 14 21-2 15-4 30-1 18-1 27 1 16 9 31 2 4 10 17 10 16 12 29 1 9 1 18-1 18-9 36l-1 9 7 9 7 7-7 9-7 7 5 9c9 16 19 31 20 45 0 5-12 20-20 27l-10 8 4 11 5 10c9 16 9 32 0 48-5 9-14 22-23 31l-5 5 6 11c18 21 33 46 33 74 0 19-6 39-15 56l-8 9 2 10c11 20 15 43 10 64-4 16-14 32-28 44l-7 6 1 11c4 14 4 29-2 42-6 16-19 28-34 35l-9 4-1 10c-1 4-5 22-9 26l-9 4 1 9c-8 9-15 20-15 32 0 9 4 18 11 25l3 2-4 9c-2 3-4 7-4 11s3 8 7 11l3 2 4 7c1 2 2 4 2 6s-1 4-3 6l-4 7-1 9c0 3 1 7 3 9l1 4-6 8c-2 3-2 6 0 9l-6-8-1-4c2-2 3-6 3-9l-1-9-4-7c-1-2-2-4-2-6s1-4 3-6l4-7-3-2c4-3 7-8 7-11s-2-8-4-11l4-9-3-2c7-7 11-16 11-25 0-12-7-23-15-32l1-9-9-4c-4-4-9-22-9-26l-1-10-9-4c-15-7-28-19-34-35-6-13-6-28-2-42l1-10-7-6c-14-12-24-28-28-44-5-21-1-44 10-64l2-10-8-9c-9-17-15-37-15-56 0-28 15-53 33-74l6-11-5-5c-9-9-18-22-23-31-9-16-9-32 0-48l5-10 4-11-10-8c-8-7-20-22-20-27 1-14 11-29 20-45l5-9-7-7-7-9 7-9c1-2 3-5 3-9l-1-9c-2-4-5-22-9-26l-1-10-9-4c-15-7-28-19-34-35-6-13-6-28-2-42l1-10-7-6c-14-12-24-28-28-44-5-21-1-44 10-64l2-10-8-9c-9-17-15-37-15-56 0-28 15-53 33-74z"/><path d="M483 600c0 27-27 54-60 54s-60-27-60-54c0-30 27-55 60-55s60 25 60 55z"/><circle cx="423" cy="600" r="30" fill="#414042"/><path d="m352 332 48 50-72 71-47-47z"/><path d="m496 332 48 50-72 71-47-47z"/><path d="m423 385 80-81 47 48-127 33z"/><path d="M423 385c0 15-8 30-22 40-15 11-34 15-50 10-11-3-23-10-30-20-5-8-8-17-10-26z"/><circle cx="335" cy="382" r="5"/><circle cx="423" cy="350" r="5"/><circle cx="511" cy="382" r="5"/></g><g fill="#414042"><path d="M423 480c-30 0-55 20-60 45h120c-5-25-30-45-60-45z"/><circle cx="335" cy="395" r="3"/><circle cx="511" cy="395" r="3"/></g></g></svg>
